<svg xmlns="http://www.w3.org/2000/svg" viewBox="0 0 136.5 136.5"><defs><style>.cls-1{fill:#ff4242;}.cls-2{fill:#fff;}</style></defs><title>zipper_icon</title><g id="Layer_2" data-name="Layer 2"><g id="Layer_1-2" data-name="Layer 1"><path class="cls-1" d="M18.12,0H118.39A18.11,18.11,0,0,1,136.5,18.11v97.72a20.67,20.67,0,0,1-20.67,20.67H18.67A18.67,18.67,0,0,1,0,117.83V18.12A18.12,18.12,0,0,1,18.12,0Z"/><path class="cls-2" d="M84.78,125.75H51.72a2.14,2.14,0,0,1-2.12-2.43L56,75.6a2.14,2.14,0,0,1,2.12-1.85h19.3a2.14,2.14,0,0,1,2.11,1.81l7.34,47.72A2.14,2.14,0,0,1,84.78,125.75Z"/><path class="cls-1" d="M78.26,120.75H57.59a2.14,2.14,0,0,1-2.12-2.43l1.58-11.72a2.14,2.14,0,0,1,2.12-1.85H76.68a2.14,2.14,0,0,1,2.12,1.86l1.58,11.72A2.14,2.14,0,0,1,78.26,120.75Z"/><rect class="cls-2" x="55.25" y="40.75" width="13" height="6" rx="2.14" ry="2.14"/><rect class="cls-2" x="55.25" y="52.75" width="13" height="6" rx="2.14" ry="2.14"/><rect class="cls-2" x="68.25" y="46.75" width="13" height="6" rx="2.14" ry="2.14"/><rect class="cls-2" x="68.25" y="22.75" width="13" height="6" rx="2.14" ry="2.14" transform="translate(149.5 51.5) rotate(-180)"/><rect class="cls-2" x="68.25" y="34.75" width="13" height="6" rx="2.14" ry="2.14" transform="translate(149.5 75.5) rotate(-180)"/><rect class="cls-2" x="55.25" y="28.75" width="13" height="6" rx="2.14" ry="2.14" transform="translate(123.5 63.5) rotate(-180)"/><rect class="cls-2" x="55.25" y="16.75" width="13" height="6" rx="2.14" ry="2.14"/><rect class="cls-2" x="68.25" y="10.75" width="13" height="6" rx="2.14" ry="2.14"/><rect class="cls-2" x="54.25" y="60.75" width="28" height="11" rx="2.14" ry="2.14"/></g></g></svg>