<?xml version="1.0" encoding="UTF-8"?>
<svg width="545px" height="545px" viewBox="0 0 545 545" version="1.1" xmlns="http://www.w3.org/2000/svg" xmlns:xlink="http://www.w3.org/1999/xlink">
    <!-- Generator: Sketch 53.2 (72643) - https://sketchapp.com -->
    <title>Compress</title>
    <desc>Created with Sketch.</desc>
    <g id="Compress" stroke="none" stroke-width="1" fill="none" fill-rule="evenodd">
        <rect id="Rectangle" fill="#FFFFFF" x="0" y="0" width="545" height="545" rx="120"></rect>
        <path d="M120,0 L425,0 C491.27417,-1.21743675e-14 545,53.72583 545,120 L545,425 C545,491.27417 491.27417,545 425,545 L120,545 C53.72583,545 8.11624501e-15,491.27417 0,425 L0,120 C-8.11624501e-15,53.72583 53.72583,1.21743675e-14 120,0 Z M265,319 C262.790861,319 261,320.790861 261,323 L261,335 C261,337.209139 262.790861,339 265,339 L281,339 C283.209139,339 285,337.209139 285,335 L285,323 C285,320.790861 283.209139,319 281,319 L265,319 Z M267,264 L253,264 C249.686292,264 247,261.313708 247,258 C247,254.686292 249.686292,252 253,252 L250.375,244 L245,244 C241.686292,244 239,241.313708 239,238 C239,234.686292 241.686292,232 245,232 L246.4375,232 L243.8125,224 L239,224 C235.686292,224 233,221.313708 233,218 C233,214.686292 235.686292,212 239,212 L239.875,212 L237.25,204 L233,204 C229.686292,204 227,201.313708 227,198 C227,194.686292 229.686292,192 233,192 L233.3125,192 L230.6875,184 L225,184 C221.686292,184 219,181.313708 219,178 C219,174.686292 221.686292,172 225,172 L226.75,172 L224.125,164 L217,164 C213.686292,164 211,161.313708 211,158 C211,154.686292 213.686292,152 217,152 L220.1875,152 L217.5625,144 L208,144 C204.686292,144 202,141.313708 202,138 C202,134.686292 204.686292,132 208,132 L213.625,132 L211,124 L144,124 C132.954305,124 124,132.954305 124,144 L124,402 C124,413.045695 132.954305,422 144,422 L402,422 C413.045695,422 422,413.045695 422,402 L422,144 C422,132.954305 413.045695,124 402,124 L335,124 L332.375,132 L338,132 C341.313708,132 344,134.686292 344,138 C344,141.313708 341.313708,144 338,144 L328.4375,144 L325.8125,152 L329,152 C332.313708,152 335,154.686292 335,158 C335,161.313708 332.313708,164 329,164 L321.875,164 L319.25,172 L321,172 C324.313708,172 327,174.686292 327,178 C327,181.313708 324.313708,184 321,184 L315.3125,184 L312.6875,192 L313,192 C316.313708,192 319,194.686292 319,198 C319,201.313708 316.313708,204 313,204 L308.75,204 L306.125,212 L307,212 C310.313708,212 313,214.686292 313,218 C313,221.313708 310.313708,224 307,224 L302.1875,224 L299.5625,232 L301,232 C304.313708,232 307,234.686292 307,238 C307,241.313708 304.313708,244 301,244 L295.625,244 L293,252 C296.313708,252 299,254.686292 299,258 C299,261.313708 296.313708,264 293,264 L279,264 C282.313708,264 285,266.686292 285,270 C285,273.313708 282.313708,276 279,276 L267,276 C263.686292,276 261,273.313708 261,270 C261,266.686292 263.686292,264 267,264 Z M263,276 L283,276 C287.418278,276 291,279.581722 291,284 L291,337 C291,341.418278 287.418278,345 283,345 L263,345 C258.581722,345 255,341.418278 255,337 L255,284 C255,279.581722 258.581722,276 263,276 Z" id="Combined-Shape" fill="#FF4342"></path>
    </g>
</svg>